<mxfile host="app.diagrams.net" modified="2023-11-17T03:44:05.683Z" agent="Mozilla/5.0 (Windows NT 10.0; Win64; x64) AppleWebKit/537.36 (KHTML, like Gecko) Chrome/119.0.0.0 Safari/537.36" version="22.1.2" etag="Tbz_qc2nfaxS5jr4yMw2" type="github">
  <diagram name="第 1 页" id="61JYuvlMuB-M6oCTO8Lh">
    <mxGraphModel>
      <root>
        <mxCell id="0" />
        <mxCell id="1" parent="0" />
      </root>
    </mxGraphModel>
  </diagram>
</mxfile>
